<?xml version="1.0" encoding="UTF-8" standalone="no"?>
<svg
   width="249.63261mm"
   height="99.936806mm"
   viewBox="0 0 943.49336 377.71389"
   fill="none"
   version="1.1"
   id="svg4"
   sodipodi:docname="Vestige-2.svg"
   inkscape:version="1.1.2 (08b2f3d93c, 2022-04-05)"
   xmlns:inkscape="http://www.inkscape.org/namespaces/inkscape"
   xmlns:sodipodi="http://sodipodi.sourceforge.net/DTD/sodipodi-0.dtd"
   xmlns:xlink="http://www.w3.org/1999/xlink"
   xmlns="http://www.w3.org/2000/svg"
   xmlns:svg="http://www.w3.org/2000/svg">
  <defs
     id="defs8">
    <rect
       x="557.39325"
       y="322.00156"
       width="325.737"
       height="77.749634"
       id="rect393674" />
    <rect
       x="0"
       y="0"
       width="1154.9167"
       height="353.26172"
       id="rect6502" />
    <rect
       x="0"
       y="0"
       width="1154.9167"
       height="353.26172"
       id="rect6502-3" />
    <pattern
       id="pattern0"
       patternContentUnits="objectBoundingBox"
       width="1"
       height="1">
      <use
         xlink:href="#image0_114_43"
         transform="scale(0.000265463 0.000646412)"
         id="use389924" />
    </pattern>
  </defs>
  <sodipodi:namedview
     id="namedview6"
     pagecolor="#aaaaaa"
     bordercolor="#666666"
     borderopacity="1.0"
     inkscape:pageshadow="2"
     inkscape:pageopacity="0"
     inkscape:pagecheckerboard="true"
     showgrid="false"
     showguides="true"
     inkscape:guide-bbox="true"
     inkscape:zoom="0.64"
     inkscape:cx="363.28125"
     inkscape:cy="-110.9375"
     inkscape:window-width="1920"
     inkscape:window-height="1163"
     inkscape:window-x="1920"
     inkscape:window-y="0"
     inkscape:window-maximized="1"
     inkscape:current-layer="svg4"
     fit-margin-top="0"
     fit-margin-left="0"
     fit-margin-right="0"
     fit-margin-bottom="0"
     width="914.59082px"
     units="mm"
     inkscape:document-units="mm">
    <sodipodi:guide
       position="48.790368,861.4764"
       orientation="0,-1"
       id="guide316558" />
  </sodipodi:namedview>
  <g
     aria-label="        estige"
     transform="translate(-28.097553,-39.103843)"
     id="text6500"
     style="font-size:281.333px;line-height:0;white-space:pre;shape-inside:url(#rect6502);fill:#000000" />
  <g
     transform="translate(-28.132647,-41.849414)"
     id="text6500-6"
     style="font-size:281.333px;line-height:1.25;letter-spacing:0px;white-space:pre;shape-inside:url(#rect6502-3);fill:#000000" />
  <g
     id="text393672"
     style="font-size:40px;line-height:1.25;white-space:pre;shape-inside:url(#rect393674);fill:#000000" />
  <g
     aria-label="vestige.fi"
     id="text394604"
     style="font-size:85.3333px;line-height:1.25;fill:#000000">
    <path
       id="path54719"
       style="font-weight:300;font-family:Prompt;-inkscape-font-specification:'Prompt Light';fill:#ffffff"
       d="m 854.42435,322.24726 h -6.4 v -5.11999 h 6.4 v -8.87467 q 0,-6.57066 4.18133,-10.06933 4.18133,-3.58399 10.496,-3.58399 3.24266,0 6.05866,0.85333 v 5.29066 q -2.048,-0.85333 -4.86399,-0.85333 -4.52267,0 -6.912,2.304 -2.38933,2.21867 -2.38933,6.4 v 8.53333 H 887.619 v 40.95998 h -6.57066 v -35.83999 h -20.05332 v 35.83999 h -6.57067 z m 29.86666,-13.99466 q -1.70667,0 -2.90134,-1.19466 -1.19466,-1.19467 -1.19466,-2.90133 0,-1.70667 1.19466,-2.90134 1.19467,-1.19466 2.90134,-1.19466 1.70666,0 2.90133,1.19466 1.28,1.19467 1.28,2.90134 0,1.70666 -1.28,2.90133 -1.19467,1.19466 -2.90133,1.19466 z m -46.93322,49.83465 q -1.62134,0 -2.73067,-1.024 -1.024,-1.10933 -1.024,-2.73067 0,-1.62133 1.024,-2.73066 1.10933,-1.10933 2.73067,-1.10933 1.62133,0 2.73066,1.10933 1.10933,1.10933 1.10933,2.73066 0,1.62134 -1.10933,2.73067 -1.10933,1.024 -2.73066,1.024 z m -31.91466,1.28 q -11.17866,0 -17.49332,-5.71733 -6.22933,-5.71733 -6.22933,-15.95733 0,-10.06933 5.63199,-15.95733 5.632,-5.88799 16.04266,-5.88799 6.99733,0 11.86133,2.73066 4.864,2.64534 7.33867,7.33867 2.47466,4.69333 2.47466,10.66666 v 3.584 h -37.20532 q 0.34134,6.99733 5.12,10.49599 4.864,3.49867 13.14133,3.49867 4.01066,0 7.85066,-0.68267 3.92533,-0.768 6.99733,-2.048 v 5.54667 q -2.56,1.024 -6.99733,1.70666 -4.352,0.68267 -8.53333,0.68267 z m 13.48266,-23.89332 q -0.17066,-6.656 -4.09599,-10.496 -3.92534,-3.84 -11.52,-3.84 -7.424,0 -11.34933,4.01067 -3.92533,3.92533 -4.096,10.32533 z m -70.31447,42.23998 q -4.096,0 -8.02133,-0.68267 -3.92534,-0.68266 -6.656,-1.87733 v -5.54667 q 6.48533,2.90134 14.67733,2.90134 8.36266,0 12.28799,-3.84 4.01067,-3.75467 4.01067,-11.43466 v -6.05867 q -5.54667,8.192 -17.57866,8.192 -6.05867,0 -11.008,-2.64533 -4.94933,-2.73067 -7.76533,-7.68 -2.816,-4.94933 -2.816,-11.34933 0,-6.48533 2.816,-11.43466 2.816,-4.94933 7.68,-7.68 4.864,-2.73066 10.92266,-2.73066 6.31466,0 10.49599,1.96266 4.18134,1.87734 7.424,6.22933 v -6.91199 h 6.4 v 39.25331 q 0,10.41067 -5.632,15.872 -5.632,5.46133 -17.23732,5.46133 z m -0.0853,-23.55199 q 6.05867,0 10.41066,-3.072 4.352,-3.072 5.97334,-8.448 v -10.15466 q -1.70667,-5.376 -6.05867,-8.36266 -4.352,-2.98667 -10.32533,-2.98667 -4.52266,0 -8.27733,2.13333 -3.66933,2.048 -5.80266,5.80267 -2.13333,3.75466 -2.13333,8.61866 0,4.94933 2.13333,8.704 2.13333,3.66933 5.80266,5.71733 3.75467,2.048 8.27733,2.048 z M 711.3207,308.2526 q -1.70666,0 -2.90133,-1.19466 -1.19467,-1.19467 -1.19467,-2.90133 0,-1.70667 1.19467,-2.90134 1.19467,-1.19466 2.90133,-1.19466 1.70667,0 2.90133,1.19466 1.28,1.19467 1.28,2.90134 0,1.70666 -1.28,2.90133 -1.19466,1.19466 -2.90133,1.19466 z m -3.24266,8.87467 h 6.57066 v 40.95998 h -6.57066 z m -16.81065,42.23998 q -5.80266,0 -9.04533,-3.41333 -3.15733,-3.41333 -3.15733,-9.728 v -23.97866 h -6.39999 v -5.11999 h 6.39999 v -12.288 h 6.57067 v 12.288 h 10.32533 v 5.11999 H 685.6354 v 24.14933 q 0,4.26666 1.70666,6.05866 1.70667,1.70667 6.22933,1.70667 2.21867,0 4.69333,-1.024 v 5.376 q -2.81599,0.85333 -6.99733,0.85333 z m -40.53304,0 q -4.01066,0 -8.61866,-1.19467 -4.608,-1.10933 -7.168,-2.816 v -5.54666 q 3.24267,1.96267 7.424,3.15733 4.26666,1.19467 8.192,1.19467 5.29066,0 7.59466,-1.45067 2.38933,-1.536 2.38933,-4.52266 0,-2.304 -1.024,-3.584 -1.024,-1.36533 -3.41333,-2.38933 -2.38933,-1.024 -7.424,-2.38934 -4.94933,-1.36533 -7.93599,-2.81599 -2.90134,-1.536 -4.43734,-3.84 -1.53599,-2.304 -1.53599,-5.888 0,-5.54667 4.43733,-8.448 4.52266,-2.98666 11.94666,-2.98666 4.01066,0 7.50933,0.768 3.584,0.68266 5.97333,1.96266 v 5.54667 q -2.47467,-1.36534 -5.97333,-2.13334 -3.49867,-0.85333 -7.25333,-0.85333 -4.94933,0 -7.50933,1.45067 -2.56,1.45066 -2.56,4.69333 0,2.21867 0.85333,3.41333 0.93867,1.19467 3.328,2.21867 2.47467,0.93866 7.85066,2.38933 7.68,2.13333 10.66667,5.03466 3.072,2.816 3.072,7.85067 0,5.20533 -4.096,8.19199 -4.01067,2.98667 -12.288,2.98667 z m -44.1173,0 q -11.17866,0 -17.49333,-5.71733 -6.22933,-5.71733 -6.22933,-15.95733 0,-10.06933 5.632,-15.95733 5.632,-5.88799 16.04266,-5.88799 6.99733,0 11.86133,2.73066 4.864,2.64534 7.33866,7.33867 2.47467,4.69333 2.47467,10.66666 v 3.584 h -37.20532 q 0.34133,6.99733 5.12,10.49599 4.864,3.49867 13.14133,3.49867 4.01066,0 7.85066,-0.68267 3.92533,-0.768 6.99733,-2.048 v 5.54667 q -2.56,1.024 -6.99733,1.70666 -4.352,0.68267 -8.53333,0.68267 z m 13.48266,-23.89332 q -0.17067,-6.656 -4.096,-10.496 -3.92533,-3.84 -11.51999,-3.84 -7.424,0 -11.34933,4.01067 -3.92533,3.92533 -4.096,10.32533 z M 537.7533,317.12727 h 6.99733 l 12.97066,32.85332 12.97066,-32.85332 h 7.08266 l -16.63999,40.95998 h -6.82666 z M 877.38002,176.95991 q 5.62666,0 10.69065,-1.96933 5.34533,-1.96933 10.69066,-4.78266 l 13.78531,30.38396 q -9.28398,4.50133 -19.69331,7.03333 -10.12798,2.53199 -19.69331,2.53199 -20.25597,0 -35.44796,-6.75199 -14.91065,-7.03332 -23.35064,-21.09997 -8.43999,-14.34799 -8.43999,-35.72929 0,-10.97199 3.93867,-22.78798 4.21999,-11.81598 12.65998,-21.94397 8.72133,-10.409323 22.50664,-16.879983 14.06665,-6.47066 33.75996,-6.47066 10.69066,0 21.09998,2.81333 10.69065,2.53199 19.41198,9.56532 9.00265,6.75199 15.19198,19.130643 6.47066,12.37866 9.00266,32.07197 l -99.02922,24.47597 -6.18933,-21.94398 77.08524,-19.97464 -13.78531,4.22 q -2.25067,-9.56533 -9.00266,-14.62932 -6.47066,-5.06399 -15.19198,-5.06399 -11.53465,0 -18.56798,4.78266 -7.03333,4.78266 -10.40932,12.37865 -3.09466,7.59599 -3.09466,15.75465 0,14.06665 5.06399,21.66264 5.34533,7.59599 12.65998,10.40932 7.596,2.81333 14.34799,2.81333 z M 691.13763,268.9558 q -18.00532,0 -30.10264,-3.93866 -11.81598,-3.93866 -19.69331,-9.56532 -7.87732,-5.62666 -14.06665,-10.69066 l 26.44531,-27.00796 q 4.21999,3.93866 9.56532,7.87732 5.34533,3.93866 12.94132,6.47066 7.87732,2.532 18.56797,2.532 8.15866,0 15.19199,-3.376 7.31466,-3.09466 12.09732,-9.28399 5.06399,-6.18932 5.90799,-15.47331 l 3.09466,-27.00797 1.12533,7.03332 q -5.06399,9.56532 -16.31731,16.87998 -11.25332,7.03333 -28.69597,7.03333 -16.87998,0 -30.66529,-7.31466 -13.50399,-7.59599 -21.66265,-21.94397 -7.87732,-14.34799 -7.87732,-35.16663 0,-10.40932 4.22,-22.22531 4.50132,-11.81598 13.22265,-22.22531 9.00265,-10.409323 22.50664,-16.879983 13.50398,-6.75199 31.79063,-6.75199 16.31731,0 27.2893,4.78266 11.25332,4.50133 16.31731,11.25332 l -3.09466,5.908 6.75199,-15.75465 h 36.29196 L 765.97221,213.5332 q -1.96934,18.00531 -12.65999,30.38397 -10.69065,12.37865 -27.00797,18.56797 -16.31731,6.47066 -35.16662,6.47066 z m 14.62931,-158.95315 q -10.40932,0 -17.72398,3.65733 -7.31466,3.376 -12.09732,9.00266 -4.50132,5.34533 -6.75199,11.53465 -1.96933,6.18933 -1.96933,11.81599 0,10.40932 3.93866,17.72398 4.22,7.03332 11.81599,10.97199 7.59599,3.65733 18.00531,3.65733 6.18933,0 12.09732,-1.96934 5.90799,-2.25066 10.97199,-6.18932 5.34532,-4.22 9.56532,-10.40932 l 3.65733,-30.10264 q -1.96933,-6.18932 -6.47066,-10.40932 -4.22,-4.50132 -10.69065,-6.75199 -6.18933,-2.532 -14.34799,-2.532 z M 563.97555,84.120017 h 39.38662 L 588.17019,207.06254 h -39.38662 z m 2.532,-43.325286 q 0,-9.002656 6.18932,-15.191982 6.18933,-6.189326 16.31732,-6.189326 7.03332,0 14.06665,4.219995 7.03332,3.938662 7.03332,14.06665 0,8.721323 -6.18932,15.191983 -6.18933,6.189326 -16.31732,6.189326 -7.03332,0 -14.06665,-3.938662 -7.03332,-4.219996 -7.03332,-14.347984 z M 470.01056,30.104077 h 39.38662 l -6.47066,53.45327 h 29.8213 l -3.65733,30.665303 h -29.8213 l -11.25332,92.83989 h -39.38662 l 11.25332,-92.83989 h -19.13064 l 3.65732,-30.665303 H 463.5399 Z M 355.22671,209.59454 q -5.064,0 -14.34799,-1.688 -9.28398,-1.40666 -19.69331,-6.47066 -10.12798,-5.06399 -18.00531,-15.47331 l 18.84931,-20.53731 q 7.59599,8.43999 13.78532,12.09732 6.18933,3.65733 10.97199,4.50132 5.06399,0.56267 8.15865,0.56267 8.72133,0 11.25333,-3.65733 2.53199,-3.65733 2.53199,-6.75199 0,-4.22 -3.65733,-6.75199 -3.37599,-2.81333 -9.00265,-4.78266 -5.34533,-1.96934 -11.25332,-4.22 -14.62932,-5.62666 -21.09998,-14.91065 -6.18933,-9.28399 -6.18933,-20.25598 0,-5.62666 1.96934,-12.65998 2.25066,-7.31466 7.31465,-14.066653 5.34533,-6.75199 14.62932,-11.25332 9.56532,-4.50133 24.47597,-4.50133 8.43999,0 16.87998,1.40667 8.72133,1.12533 16.87998,4.78266 8.43999,3.37599 16.03598,9.84665 l -17.72397,22.225313 q -5.908,-5.90799 -12.37866,-9.00266 -6.18932,-3.09466 -13.50398,-3.09466 -5.34533,0 -8.43999,1.688 -3.09467,1.40666 -4.50133,3.93866 -1.40667,2.532 -1.40667,5.34533 0,4.50133 4.22,7.31466 4.22,2.81333 10.12799,4.78266 6.18932,1.96933 12.09732,4.50132 8.43999,3.376 14.34798,8.43999 5.90799,5.064 8.43999,12.09732 2.81333,6.752 1.688,16.03599 -0.844,8.15865 -4.78266,15.75464 -3.93866,7.31466 -10.69066,12.94132 -6.47066,5.62666 -16.03598,8.72133 -9.56532,3.09466 -21.94397,3.09466 z M 225.53264,176.95991 q 5.62666,0 10.69065,-1.96933 5.34533,-1.96933 10.69066,-4.78266 l 13.78531,30.38396 q -9.28399,4.50133 -19.69331,7.03333 -10.12799,2.53199 -19.69331,2.53199 -20.25597,0 -35.44796,-6.75199 -14.91065,-7.03332 -23.35064,-21.09997 -8.43999,-14.34799 -8.43999,-35.72929 0,-10.97199 3.93866,-22.78798 4.22,-11.81598 12.65999,-21.94397 8.72132,-10.409323 22.50664,-16.879983 14.06665,-6.47066 33.75996,-6.47066 10.69066,0 21.09998,2.81333 10.69065,2.53199 19.41197,9.56532 9.00266,6.75199 15.19199,19.130643 6.47066,12.37866 9.00265,32.07197 l -99.02922,24.47597 -6.18932,-21.94398 77.08524,-19.97464 -13.78531,4.22 q -2.25067,-9.56533 -9.00266,-14.62932 -6.47066,-5.06399 -15.19198,-5.06399 -11.53466,0 -18.56798,4.78266 -7.03333,4.78266 -10.40932,12.37865 -3.09467,7.59599 -3.09467,15.75465 0,14.06665 5.064,21.66264 5.34533,7.59599 12.65998,10.40932 7.59599,2.81333 14.34799,2.81333 z m -171.23044,-4.0979 12.8975,41.057 h 1.4 L 188.159,0 h -48.16 L 115.793,48.1306 81.836097,117.011 68.6207,143.81701 Z M 65.1393,58.0156 48.7198,0 H 0 l 37.7469,120.16101 z" />
  </g>
</svg>
